<svg width="44" height="44" viewBox="0 0 44 44" fill="none" xmlns="http://www.w3.org/2000/svg">
<path d="M1.17341 7.49329C0.46685 6.73503 0.0821929 5.73211 0.100477 4.69584C0.118761 3.65957 0.538558 2.67085 1.27143 1.93798C2.0043 1.20511 2.99302 0.78531 4.02929 0.767026C5.06556 0.748742 6.06848 1.1334 6.82674 1.83996L24.1601 19.1733C24.9091 19.9233 25.3299 20.94 25.3299 22C25.3299 23.06 24.9091 24.0766 24.1601 24.8266L6.82674 42.16C6.06848 42.8665 5.06556 43.2512 4.02929 43.2329C2.99302 43.2146 2.0043 42.7948 1.27143 42.0619C0.538558 41.3291 0.118761 40.3404 0.100477 39.3041C0.0821929 38.2678 0.46685 37.2649 1.17341 36.5066L15.6801 22L1.17341 7.49329ZM40.0001 43.3333C41.0609 43.3333 42.0784 42.9119 42.8285 42.1617C43.5786 41.4116 44.0001 40.3942 44.0001 39.3333V4.66663C44.0001 3.60576 43.5786 2.58834 42.8285 1.8382C42.0784 1.08805 41.0609 0.666626 40.0001 0.666626C38.9392 0.666626 37.9218 1.08805 37.1717 1.8382C36.4215 2.58834 36.0001 3.60576 36.0001 4.66663V39.3333C36.0001 41.5413 37.7921 43.3333 40.0001 43.3333Z" fill="white"/>
</svg>
